<?xml version="1.0" encoding="UTF-8" standalone="no"?>
<!DOCTYPE svg PUBLIC "-//W3C//DTD SVG 1.1//EN" "http://www.w3.org/Graphics/SVG/1.1/DTD/svg11.dtd">
<!-- Created with Vectornator (http://vectornator.io/) -->
<svg height="100%" stroke-miterlimit="10" style="fill-rule:nonzero;clip-rule:evenodd;stroke-linecap:round;stroke-linejoin:round;" version="1.1" viewBox="0 0 1200 1017.76" width="100%" xml:space="preserve" xmlns="http://www.w3.org/2000/svg" xmlns:xlink="http://www.w3.org/1999/xlink">
<defs/>
<g id="Untitled">
<path d="M910.143 5.68434e-14L893.227 81.0528C876.085 83.7495 859.375 88.707 843.536 95.7958L785.307 36.9709L718.998 90.6318L764.352 159.935C754.248 173.797 745.995 189.039 739.729 205.438L656.879 205.064L647.973 289.933L729.028 306.847C731.751 324.176 736.774 340.744 743.77 356.392L684.946 414.768L738.606 481.078L807.909 435.648C821.918 445.857 837.22 454.162 853.413 460.346L853.038 543.12L937.909 552.024L954.747 470.971C972.093 468.249 988.782 463.305 1004.44 456.302L1062.74 515.127L1129.05 461.392L1083.62 392.163C1093.83 378.156 1102.14 362.854 1108.32 346.66L1191.09 346.96L1200 262.09L1118.95 245.326C1116.22 227.972 1111.29 211.223 1104.28 195.556L1163.1 137.329L1109.37 71.0199L1040.14 116.374C1026.27 106.263 1010.97 97.9458 994.56 91.6768L994.933 8.90298C994.933 8.90298 910.143-7.10543e-14 910.143 5.68434e-14ZM924.211 197.131C926.879 197.14 929.584 197.221 932.295 197.505C975.65 202.06 1007.05 240.889 1002.5 284.245C997.941 327.6 959.111 359.075 915.754 354.519C872.399 349.964 840.924 311.135 845.479 267.78C849.748 227.134 884.203 196.992 924.211 197.131ZM315.23 204.091L303.855 316.801C280.65 322.988 258.67 332.125 238.369 343.893L150.655 272.197L68.105 354.747L139.803 442.535C128.035 462.843 118.893 484.807 112.711 508.019L5.68434e-13 519.32L5.68434e-13 636.071L112.71 647.447C118.809 670.352 127.919 692.347 139.802 712.857L68.104 800.645L150.654 883.195L238.443 811.498C258.953 823.382 280.948 832.492 303.854 838.591L315.229 951.301L431.981 951.301L443.282 838.591C466.494 832.408 488.46 823.266 508.766 811.498L596.554 883.195L679.104 800.645L607.407 712.932C619.175 692.63 628.313 670.651 634.499 647.447L747.21 636.071L747.21 519.32L634.5 508.018C628.314 484.793 619.186 462.775 607.408 442.457L679.105 354.743L596.555 272.194L508.842 343.89C488.526 332.115 466.506 322.985 443.28 316.797L431.979 204.088L315.23 204.088L315.23 204.091ZM373.606 469.7C433.255 469.7 481.602 518.048 481.602 577.696C481.602 637.343 433.255 685.69 373.606 685.69C313.958 685.69 265.61 637.343 265.61 577.696C265.61 518.048 313.958 469.7 373.606 469.7ZM869.279 613.919L857.379 673.192C845.191 675.185 833.506 678.845 822.502 683.968L781.49 640.935L734.937 680.227L766.82 730.894C759.718 741.037 753.861 752.202 749.457 764.199L691.307 763.898L685.02 826.016L741.975 838.366C743.851 850.858 747.322 863.057 752.303 874.664L710.991 917.323L748.712 965.82L797.433 932.591C807.221 940.02 817.972 946.087 829.39 950.628L829.165 1011.25L888.813 1017.76L900.637 958.411C912.826 956.42 924.506 952.832 935.512 947.709L976.526 990.742L1023.15 951.451L991.194 900.783C998.298 890.644 1004.15 879.471 1008.56 867.477L1066.79 867.703L1073 805.66L1016.04 793.31C1014.13 780.615 1010.64 768.399 1005.72 756.939L1047.03 714.354L1009.31 665.782L960.662 699.011C950.916 691.615 940.164 685.562 928.631 680.975L928.93 620.429C928.93 620.429 869.279 613.919 869.279 613.919ZM879.158 758.063C881.031 758.072 882.941 758.155 884.846 758.364C915.319 761.695 937.367 790.108 934.166 821.828C930.965 853.547 903.717 876.576 873.244 873.244C842.771 869.912 820.648 841.498 823.849 809.778C826.85 780.04 851.039 757.961 879.158 758.063Z" fill="#000000" fill-rule="nonzero" opacity="1" stroke="none"/>
</g>
</svg>
