

<svg height="100%" stroke-miterlimit="10" style="fill-rule:nonzero;clip-rule:evenodd;stroke-linecap:round;stroke-linejoin:round;" version="1.1" viewBox="0 0 22 22" width="100%" xml:space="preserve" xmlns="http://www.w3.org/2000/svg" xmlns:xlink="http://www.w3.org/1999/xlink">
<defs/>
<g id="Untitled">
<path d="M21 11C21 15.714 21 18.071 19.535 19.535C18.072 21 15.714 21 11 21C6.286 21 3.929 21 2.464 19.535C1 18.072 1 15.714 1 11C1 6.286 1 3.929 2.464 2.464C3.93 1 6.286 1 11 1C15.714 1 18.071 1 19.535 2.464C20.509 3.438 20.835 4.807 20.945 7" fill="none" opacity="1" stroke="#000000" stroke-linecap="round" stroke-linejoin="miter" stroke-width="1.5"/>
<path d="M6.65831 15.3326L7.53533 15.3326L13.3123 9.5557L12.4352 8.67868L6.65831 14.4556L6.65831 15.3326ZM16.5822 16.5731L5.41782 16.5731L5.41782 13.9414L13.7508 5.60848C13.993 5.36635 14.3856 5.36635 14.6278 5.60848L16.3825 7.36315C16.6246 7.60535 16.6246 7.99796 16.3825 8.24017L9.28999 15.3326L16.5822 15.3326L16.5822 16.5731ZM13.3123 7.80166L14.1893 8.67868L15.0663 7.80166L14.1893 6.92463L13.3123 7.80166Z" fill="#000000" fill-rule="nonzero" opacity="1" stroke="none"/>
</g>
</svg>
