<svg width="487" height="390" xmlns="http://www.w3.org/2000/svg" version="1.0" preserveAspectRatio="xMidYMid meet">
 <title>koza_wastermark</title>

 <g>
  <title>Layer 1</title>
  <g transform="translate(0, 713) scale(0.1, -0.1)" fill="#000" id="svg_1">
   <path d="m10015,4703c-406,-53 -420,-64 -563,-410l-77,-188l-38,-3c-32,-3 -39,-8 -53,-40c-9,-20 -16,-48 -16,-62c0,-14 -3,-27 -7,-30c-3,-3 -34,-48 -68,-100c-68,-103 -146,-189 -157,-171c-4,6 -2,28 3,48l10,38l-24,-28c-14,-15 -25,-35 -25,-43c0,-8 -6,-14 -14,-14c-9,0 -17,16 -22,43c-5,34 -8,38 -15,22c-4,-11 -8,-39 -8,-62c-1,-28 -6,-43 -13,-43c-42,1 -110,26 -157,56c-68,45 -124,65 -162,57c-21,-4 -36,0 -51,13c-12,11 -18,13 -14,6c5,-8 -8,-27 -38,-53c-26,-23 -58,-61 -72,-85c-23,-39 -28,-43 -47,-33c-12,7 -30,18 -39,26c-16,14 -16,18 -1,47c27,52 62,92 104,121c23,14 38,29 35,32c-14,15 -98,-32 -147,-82c-30,-30 -56,-55 -59,-55c-3,0 -14,7 -24,15c-19,14 -19,17 -3,69c19,60 101,161 120,149c7,-3 3,3 -7,15c-28,33 -135,31 -239,-4c-93,-31 -97,-44 -5,-16c81,25 159,36 198,27l31,-7l-45,-29c-47,-32 -98,-99 -116,-154c-8,-25 -18,-34 -42,-39c-47,-9 -48,-8 -48,28c0,47 18,95 52,139c34,43 23,49 -21,11c-37,-31 -75,-93 -91,-151c-12,-38 -29,-52 -64,-53c-10,0 -2,125 9,153c4,9 3,17 -3,17c-16,0 -52,-96 -52,-138c0,-36 -3,-41 -31,-51c-58,-20 -62,-17 -56,42c3,28 8,62 12,75c4,12 3,22 -2,22c-15,0 -44,-70 -50,-122c-5,-41 -11,-51 -34,-63c-15,-8 -30,-15 -34,-15c-3,0 -5,34 -5,76c0,41 -4,73 -9,70c-12,-8 -34,-122 -28,-146c4,-14 -4,-27 -26,-45c-28,-21 -33,-22 -41,-8c-5,9 -6,40 -3,69c3,30 2,54 -3,54c-14,0 -30,-70 -30,-131c0,-45 -4,-60 -23,-77c-13,-12 -27,-22 -31,-22c-5,0 -5,27 -2,61c5,37 4,59 -2,55c-14,-8 -32,-88 -32,-139c0,-27 -6,-49 -15,-57c-13,-11 -15,-8 -15,21c0,55 17,140 39,200c25,66 73,119 139,154c26,14 36,23 22,19c-97,-25 -183,-116 -204,-215l-6,-26l-128,-5c-119,-5 -133,-8 -214,-43l-87,-37l62,-47c116,-88 169,-149 221,-257c62,-126 138,-205 250,-258c88,-42 132,-53 285,-71c99,-12 118,-17 150,-43c20,-16 81,-63 137,-105c116,-89 138,-111 151,-152c8,-24 16,-31 41,-33c26,-3 32,-8 32,-27c0,-13 10,-31 21,-39c20,-13 23,-29 31,-158c5,-79 12,-194 16,-256c5,-81 4,-125 -5,-155c-7,-23 -13,-58 -13,-78c0,-33 -11,-46 -173,-195c-95,-87 -246,-240 -334,-339c-89,-99 -176,-196 -193,-215c-40,-45 -57,-84 -61,-140c-3,-44 -2,-45 25,-43c39,3 262,116 514,262c117,68 216,120 219,117c4,-3 0,-25 -7,-48c-18,-59 -117,-156 -198,-195c-79,-38 -68,-53 37,-53c105,0 256,39 372,95c89,44 94,45 97,25c3,-18 8,-20 35,-15c70,14 194,60 248,91c67,40 69,40 69,14c0,-33 44,-25 212,44c124,50 170,74 222,116c36,30 66,61 67,69c6,134 11,197 18,204c5,5 139,-68 297,-161c159,-93 377,-217 485,-275c232,-125 528,-262 541,-249c15,15 -4,93 -31,125c-107,132 -255,287 -407,428c-184,171 -252,228 -481,407c-153,119 -143,94 -115,285l17,118l214,193l214,194l58,-5l59,-6l0,36c0,27 5,37 21,42c11,4 23,4 27,1c11,-12 60,45 55,64c-5,20 25,69 42,70c6,0 22,13 35,30c14,16 29,29 33,30c5,0 14,6 21,13c8,6 38,32 67,57c30,25 74,64 99,86c44,41 48,42 177,63c141,22 311,71 354,102c44,31 172,168 201,214c15,23 30,59 34,80c14,77 120,203 221,263c35,20 61,42 60,47c-6,19 -68,54 -120,66c-29,7 -128,15 -221,18l-170,6l-18,104c-36,205 -149,473 -236,564c-26,27 -85,72 -132,100l-85,52l-310,1c-301,2 -318,1 -570,-33zm855,-22c123,-46 245,-185 309,-351c18,-45 31,-84 29,-86c-2,-2 -29,14 -60,35c-31,21 -72,47 -91,58c-29,17 -35,28 -40,67c-8,56 -49,143 -89,188c-19,22 -27,26 -22,13c40,-108 54,-155 54,-186l0,-35l-71,23c-40,13 -77,23 -85,23c-7,0 -15,14 -19,30c-10,44 -80,144 -126,181c-47,37 -60,33 -25,-8c31,-37 74,-121 82,-160l6,-28l-94,3l-93,3l-34,65c-21,41 -54,83 -89,114c-68,61 -99,67 -47,9c38,-42 95,-151 95,-180c0,-13 -16,-20 -67,-28c-38,-7 -75,-14 -84,-17c-11,-3 -27,14 -52,54c-20,33 -54,75 -76,95c-36,32 -129,87 -148,87c-4,0 19,-23 50,-51c57,-50 92,-100 121,-171l16,-37l-58,-16c-31,-9 -64,-18 -73,-21c-12,-3 -25,9 -42,38c-50,85 -150,167 -230,189c-54,14 -56,6 -4,-25c59,-34 135,-119 162,-181l22,-49l-39,-18l-39,-17l-57,38c-76,51 -132,71 -214,78c-74,6 -97,-10 -30,-21c61,-9 153,-61 206,-115l50,-51l-29,-59l-28,-60l-50,39c-68,55 -145,89 -216,96l-60,7l20,51c32,80 95,188 138,238c74,83 198,118 546,152c220,22 266,24 455,21c138,-3 174,-7 220,-24zm-1283,-496c52,-23 145,-102 164,-137c16,-30 -66,-61 -143,-56c-69,5 -105,27 -132,82c-17,34 -17,44 -6,93c11,52 13,54 38,48c15,-3 50,-17 79,-30zm1284,-40c52,-19 114,-76 136,-125c8,-19 23,-82 33,-139l18,-104l-58,-70c-33,-38 -78,-109 -101,-156c-23,-47 -65,-116 -93,-153c-47,-62 -57,-70 -155,-116c-58,-28 -142,-59 -186,-71c-66,-17 -252,-40 -331,-41c-18,-1 -17,-2 4,-20c13,-11 42,-25 63,-31c35,-11 39,-15 39,-46c0,-32 -1,-33 -41,-33c-39,0 -69,-17 -69,-40c0,-25 -147,40 -188,83c-55,59 -102,128 -102,152c0,30 15,35 133,42c54,3 93,9 86,13c-23,15 3,30 54,31c29,1 44,3 35,6c-10,2 -18,11 -18,19c0,10 14,14 53,14c47,1 50,2 29,13c-17,10 -20,15 -10,25c7,7 24,12 39,12c30,0 51,20 22,20c-16,1 -15,3 6,20c13,11 33,20 45,20c17,0 18,2 6,10c-8,5 -12,11 -10,12c3,2 18,12 33,21c15,10 25,22 22,27c-3,5 12,18 35,30c45,23 52,35 15,26c-14,-4 -25,-3 -25,0c0,4 22,36 49,73c42,57 82,141 105,217c7,22 6,22 -66,9c-40,-8 -132,-18 -203,-24c-155,-12 -299,-50 -330,-86c-11,-12 -32,-26 -47,-29c-28,-6 -28,-6 -28,45c0,41 8,66 40,123c22,40 48,80 58,89c13,12 84,28 223,52c112,19 274,48 359,64c178,34 259,37 321,16zm-1436,-271c33,-33 89,-77 125,-97c36,-20 61,-37 55,-37c-5,0 -28,11 -50,25c-45,27 -71,33 -40,9c45,-36 161,-84 217,-90c32,-4 58,-8 58,-11c0,-2 -8,-16 -17,-31c-11,-17 6,-5 43,29c106,100 188,129 364,129c63,0 144,7 180,14c36,8 66,13 67,12c6,-6 -69,-120 -122,-185c-140,-174 -355,-295 -579,-327l-49,-7l6,49c6,43 5,47 -8,31c-7,-11 -17,-37 -20,-58c-7,-43 5,-69 33,-69c13,0 12,3 -4,15c-14,11 -15,14 -4,15c28,0 115,-76 146,-128c69,-114 50,-235 -46,-300c-68,-46 -193,-18 -289,64c-23,20 -44,34 -47,31c-7,-7 101,-102 163,-144l53,-36l-40,-28c-44,-32 -84,-89 -106,-152c-20,-55 -10,-58 14,-4c30,69 119,157 158,157c3,0 -19,-27 -49,-60c-64,-68 -100,-137 -124,-234c-14,-58 -18,-65 -25,-46c-15,41 -41,91 -44,87c-3,-2 3,-24 12,-48c9,-24 17,-73 17,-109c4,-151 -102,-257 -280,-279c-89,-11 -178,2 -257,38c-61,27 -65,31 -86,87c-47,122 -24,279 55,372c20,22 42,57 50,76c9,20 19,35 23,34c4,-1 19,5 35,12c23,11 31,11 52,0c14,-7 25,-19 25,-27c0,-23 20,-14 70,33c61,57 147,223 155,299l6,50l-29,-60c-36,-75 -83,-130 -134,-156c-81,-41 -314,-35 -369,10c-20,16 -21,21 -10,53c6,19 29,59 51,88c52,70 50,77 -5,17c-81,-88 -104,-203 -58,-289c16,-30 18,-31 21,-10c4,27 10,28 28,5c21,-28 16,-85 -10,-144c-49,-106 -58,-266 -21,-371c8,-23 12,-45 9,-48c-3,-3 -36,-4 -72,-4c-175,4 -295,113 -296,269c-1,124 70,237 186,295c34,16 54,30 45,30c-10,0 -17,1 -17,3c0,14 70,177 102,239c45,88 95,138 136,138l27,0l-25,-20c-14,-11 -29,-20 -34,-20c-5,0 -7,-3 -3,-6c3,-4 34,8 68,25c33,18 63,30 66,27c3,-3 -8,-38 -24,-78c-17,-40 -34,-89 -38,-108c-3,-19 -9,-43 -11,-52c-3,-10 -1,-18 5,-18c6,0 11,6 11,14c0,27 49,158 71,191c29,41 68,65 108,65c34,0 127,-29 281,-88c58,-22 128,-43 155,-46l50,-6l-65,24c-61,23 -63,24 -29,25c48,1 97,18 136,47c40,31 43,30 43,-6c0,-16 5,-30 10,-30c11,0 14,122 4,133c-3,3 -20,-10 -36,-29c-46,-53 -101,-77 -183,-80c-38,-1 -56,0 -40,2c62,10 133,34 146,50c12,15 12,16 -6,11c-60,-19 -203,-33 -288,-28c-69,4 115,67 218,75c51,3 73,10 82,23c24,32 35,97 30,168c-3,39 -3,83 0,98c6,29 58,87 79,87c7,0 16,5 19,11c5,7 -4,8 -27,4c-24,-5 -53,1 -101,19c-64,24 -68,24 -111,10c-63,-22 -171,-124 -276,-264c-49,-64 -102,-129 -120,-143c-43,-37 -97,-36 -175,3c-54,27 -57,29 -24,24c20,-3 39,-1 43,4c3,5 -11,12 -32,15c-20,4 -71,27 -112,52c-89,56 -123,64 -150,40c-19,-17 -22,-16 -75,24c-31,23 -69,61 -86,84c-27,36 -30,49 -27,92c5,64 42,137 90,181c59,53 74,53 181,-5c51,-28 118,-57 148,-65c36,-9 53,-18 50,-28c-33,-108 -35,-192 -8,-283c11,-38 12,-33 17,80c9,166 19,185 129,238c103,48 193,136 261,251c38,66 46,74 55,59c6,-10 37,-45 70,-79zm2195,-33c0,-4 -26,-12 -57,-20c-32,-7 -80,-23 -108,-36c-82,-39 -91,-39 -89,-8c1,24 7,29 45,39c85,23 209,37 209,25zm-92,-105c-8,-6 -34,-27 -59,-47c-38,-30 -89,-59 -105,-59c-2,0 -3,16 -2,36c3,39 6,41 133,81c35,11 54,5 33,-11zm-418,-61c10,-22 24,-68 30,-101c17,-86 0,-119 -94,-182c-188,-126 -467,-226 -666,-239c-52,-3 -92,-3 -88,1c3,4 39,14 80,22c111,23 304,90 388,135c97,53 221,142 270,195c46,50 56,90 43,180c-9,60 -8,65 5,48c8,-10 22,-37 32,-59zm-80,-89c-11,-33 -78,-121 -87,-112c-5,5 28,73 66,134c28,46 40,35 21,-22zm-2696,-63c25,-21 52,-55 61,-75c8,-20 24,-42 35,-48c11,-6 20,-18 20,-27c0,-14 -11,-15 -82,-9c-46,3 -120,12 -166,18c-45,6 -85,8 -89,4c-11,-11 116,-133 182,-175c75,-48 157,-66 263,-58c42,3 87,9 100,13c19,5 22,3 22,-22l0,-29l21,33c12,17 23,32 26,32c16,0 45,-25 58,-49c13,-27 13,-31 -8,-57c-12,-15 -15,-24 -8,-19c8,4 -3,-17 -25,-48c-22,-32 -40,-50 -42,-42c-2,8 2,24 8,36c8,15 9,19 1,15c-20,-13 -40,-62 -46,-117c-4,-30 -11,-78 -17,-108c-10,-54 -10,-54 -27,-33c-10,14 -33,25 -61,30c-39,6 -45,11 -48,34c-4,33 -20,40 -65,27c-28,-8 -44,-5 -93,17c-32,14 -61,28 -63,30c-3,3 20,30 50,60l54,56l-45,-22c-25,-12 -52,-28 -60,-35c-53,-45 -385,-65 -503,-31c-66,19 -77,37 -76,114l1,47l11,-32c18,-50 49,-73 123,-95c82,-23 266,-34 344,-20c47,8 50,10 19,11c-20,0 -59,11 -87,22c-42,17 -62,35 -105,93c-29,39 -73,109 -97,156c-27,51 -67,109 -102,146c-32,33 -58,66 -58,72c0,13 -9,11 250,73c247,60 264,60 324,12zm-926,-69c36,-5 42,-10 42,-31c0,-13 -3,-22 -7,-20c-46,24 -107,47 -125,48c-13,0 -32,5 -43,10c-20,9 34,6 133,-7zm1970,-78c5,-26 -16,-45 -28,-26c-5,8 -10,23 -10,33c0,24 34,18 38,-7zm-1983,1c46,-12 50,-16 53,-47l3,-33l-29,19c-47,31 -98,74 -87,74c6,0 33,-6 60,-13zm370,-51c29,-30 68,-85 89,-123c20,-37 54,-93 76,-123c41,-57 49,-102 19,-108c-13,-2 -187,103 -226,138c-23,20 -14,29 23,23c49,-8 42,11 -17,52c-43,31 -44,33 -47,90c-4,69 3,105 20,105c7,0 35,-24 63,-54zm1802,32c-3,-8 -6,-5 -6,6c-1,11 2,17 5,13c3,-3 4,-12 1,-19zm-125,-73c3,-14 1,-25 -3,-25c-5,0 -9,11 -9,25c0,14 2,25 4,25c2,0 6,-11 8,-25zm-703,-9c21,-11 21,-14 6,-20c-11,-4 -15,-13 -12,-26c7,-28 -5,-25 -37,9c-42,44 -14,68 43,37zm838,-18c-3,-7 -5,-2 -5,12c0,14 2,19 5,13c2,-7 2,-19 0,-25zm-74,-65c-13,-2 -35,-2 -50,0c-16,2 -5,4 22,4c28,0 40,-2 28,-4zm1077,-125c-52,-49 -106,-88 -122,-88c-22,0 -52,45 -44,65c3,9 19,15 38,16c18,0 51,6 73,14c22,7 49,13 59,14c18,1 18,-1 -4,-21zm-237,-70c51,-111 58,-131 49,-140c-22,-22 -49,11 -82,96c-9,24 -5,96 6,96c2,0 14,-24 27,-52zm-270,-18c76,-15 74,-32 -7,-61l-38,-14l-34,39c-19,22 -34,48 -34,58c0,17 2,17 28,4c15,-7 53,-19 85,-26zm127,-41c0,-6 14,-40 31,-76c31,-64 32,-87 5,-64c-39,32 -75,151 -46,151c6,0 10,-5 10,-11zm-239,-16c16,-10 29,-20 29,-24c0,-8 -50,-42 -55,-37c-7,7 -17,78 -10,78c4,0 20,-8 36,-17zm-1676,-87c68,-31 82,-49 65,-81c-20,-38 -49,-31 -125,32c-66,54 -68,58 -45,64c41,11 53,10 105,-15zm1833,-59c38,-35 55,-76 49,-119c-6,-43 -52,-139 -73,-151c-8,-4 -14,-13 -14,-18c0,-10 -145,-159 -181,-187c-34,-26 -4,163 31,198c33,33 80,133 80,173c0,9 -11,34 -25,55c-13,20 -26,48 -27,61c-2,19 2,24 26,27c15,1 31,5 33,8c9,8 75,-23 101,-47zm-1665,-24c10,-52 -47,-163 -71,-138c-7,7 51,174 59,169c4,-2 9,-16 12,-31zm1486,-7c-2,-2 -14,0 -26,5c-15,6 -21,13 -16,24c5,15 8,14 26,-4c12,-11 19,-22 16,-25zm-142,-291c-6,-298 -31,-446 -119,-710c-17,-49 -32,-92 -34,-94c-2,-2 -10,1 -17,8c-20,16 -43,4 -67,-35c-26,-42 -38,-80 -50,-169c-12,-81 -28,-101 -115,-150c-61,-35 -285,-128 -291,-122c-2,2 0,18 5,35c5,18 7,32 4,32c-3,0 -22,-13 -42,-29c-56,-44 -159,-97 -235,-120c-86,-27 -90,-26 -70,4c9,14 15,28 12,30c-3,3 -56,-19 -119,-49c-133,-63 -212,-86 -299,-86l-62,0l35,40c44,48 80,117 98,190c15,58 18,411 6,540c-5,50 -4,59 4,40c16,-38 38,-59 104,-95c152,-85 332,-127 535,-128c147,0 221,11 345,50c65,20 88,33 122,69c80,83 162,288 198,493c21,120 38,391 30,473c-7,79 5,114 18,53c5,-22 6,-143 4,-270zm-787,251c0,-2 -8,-10 -17,-17c-16,-13 -17,-12 -4,4c13,16 21,21 21,13zm718,-103l-3,-38l-13,53c-10,43 -10,58 0,75c12,21 13,20 16,-15c2,-21 2,-55 0,-75zm-53,50c-10,-42 -25,-52 -25,-17c0,32 6,44 23,44c5,0 6,-12 2,-27zm185,-62c0,-60 -4,-84 -17,-100c-17,-21 -18,-19 -18,78c0,90 2,101 18,101c15,0 17,-10 17,-79zm-151,-58c13,-85 14,-275 1,-228c-18,64 -41,262 -35,288c11,41 22,22 34,-60zm-80,-43c-15,-86 -20,-90 -35,-26c-13,54 -13,61 7,105l22,46l8,-35c4,-19 3,-60 -2,-90zm54,-260c1,-109 -3,-168 -13,-200l-14,-45l-7,110c-4,61 -12,137 -18,170c-9,49 -8,75 6,145l17,85l14,-55c9,-35 15,-112 15,-210zm-108,178c9,-53 7,-152 -4,-198l-8,-35l-7,30c-4,17 -14,49 -21,71c-11,35 -11,51 3,108c9,36 19,66 23,66c4,0 11,-19 14,-42zm277,-81c-3,-54 -8,-70 -24,-78c-18,-10 -19,-8 -12,53c3,35 13,71 22,81c8,9 16,16 17,15c1,-2 0,-34 -3,-71zm-224,-217c10,-106 3,-202 -17,-237c-8,-14 -10,-5 -11,42c0,33 -5,87 -10,120c-11,62 5,204 21,188c4,-4 12,-55 17,-113zm-92,65c8,-47 0,-142 -16,-180l-12,-30l-17,70c-17,67 -17,72 1,107c10,21 18,44 18,53c0,29 19,15 26,-20zm311,18c-3,-10 -11,-62 -18,-115c-7,-54 -15,-98 -18,-98c-3,0 -14,7 -23,14c-16,12 -17,19 -2,102c9,56 21,94 31,102c23,17 35,15 30,-5zm-1357,-124c0,-89 -5,-104 -34,-93c-13,5 -16,25 -16,117l0,110l25,-23c23,-22 25,-31 25,-111zm121,-51c5,-62 -2,-98 -22,-98c-5,0 -25,7 -44,14l-35,15l0,68c0,37 3,78 6,90l6,23l42,-25c40,-24 41,-26 47,-87zm134,28l51,-7l-4,-67c-2,-37 -5,-73 -7,-79c-5,-16 -42,-16 -101,-2l-44,11l0,68c0,87 5,101 33,91c12,-5 45,-12 72,-15zm700,-36c33,-99 6,-143 -92,-156l-53,-7l0,82c0,58 4,81 13,81c6,0 32,11 57,25c25,13 48,24 52,24c3,1 14,-21 23,-49zm-514,4c74,-18 79,-26 79,-116c0,-48 -19,-57 -93,-47c-29,4 -60,8 -69,8c-12,1 -18,9 -18,23c0,36 22,148 29,148c3,0 36,-7 72,-16zm648,-109c1,-73 -20,-137 -52,-164c-16,-12 -17,-8 -17,50c-1,81 51,258 61,212c4,-16 7,-59 8,-98zm-331,22c4,-81 -3,-87 -104,-87l-84,0l0,59c0,33 -3,67 -6,76c-6,14 5,15 92,13l99,-3l3,-58zm-775,25c16,-17 37,-100 37,-143c0,-31 -30,-22 -45,14c-17,42 -30,147 -18,147c6,0 17,-8 26,-18zm1315,-25c6,-7 9,-23 5,-35c-4,-18 -9,-20 -24,-11c-19,10 -26,39 -12,52c10,10 19,8 31,-6zm-1217,-26c40,-18 44,-24 56,-73c24,-103 18,-112 -56,-82c-37,15 -40,19 -46,62c-3,26 -8,62 -11,80c-6,37 -1,39 57,13zm1297,-38c46,-34 276,-218 316,-252c197,-170 482,-459 474,-481c-7,-21 -460,215 -743,388c-170,103 -163,98 -158,126c3,15 9,28 13,31c4,3 36,-14 71,-37c107,-69 408,-248 491,-291c43,-22 81,-37 85,-33c12,12 -144,154 -377,344c-112,92 -211,172 -218,178c-9,7 -12,18 -8,32c9,28 10,28 54,-5zm-1143,-11l70,-18l12,-65c7,-35 10,-70 8,-76c-5,-16 -37,-16 -87,-3c-51,14 -64,31 -73,87c-3,26 -9,58 -12,71c-6,26 -7,26 82,4zm225,-40c61,-7 65,-9 68,-34c5,-41 -16,-106 -38,-118c-28,-15 -118,-2 -129,19c-5,9 -12,46 -16,83l-7,68l28,-6c16,-3 58,-8 94,-12zm535,-1c5,-17 2,-43 -12,-94c-7,-26 -50,-44 -133,-56c-41,-5 -75,-9 -76,-8c-1,1 5,36 14,78l16,76l75,10c42,6 84,11 93,11c9,1 19,-7 23,-17zm-225,-32c0,-43 -23,-110 -43,-124c-20,-14 -176,-22 -188,-10c-3,2 1,38 9,80l15,75l103,0c98,0 104,-1 104,-21zm490,-93c0,-6 -3,-21 -6,-33c-5,-18 -10,-20 -23,-13c-41,24 -42,25 -30,58c10,30 11,31 35,16c13,-9 24,-21 24,-28zm-1340,-56c0,-26 -20,-50 -132,-159c-75,-73 -126,-131 -120,-135c6,-3 17,0 25,8c8,8 17,12 21,9c3,-4 20,3 36,15c16,12 34,22 40,22c5,0 10,3 10,8c0,4 19,16 43,27c23,11 48,26 55,32c23,22 32,14 32,-25c0,-35 -4,-41 -42,-63c-24,-13 -52,-29 -63,-36c-11,-6 -51,-28 -90,-48c-38,-20 -88,-47 -110,-60c-56,-32 -175,-91 -202,-99c-13,-4 -23,-3 -23,2c0,4 10,18 23,29c12,11 29,30 37,41c70,92 430,462 450,462c5,0 10,-14 10,-30z" id="svg_2"/>
   <path d="m9465,3816c17,-14 35,-25 40,-25c11,0 -20,25 -50,41c-11,5 -6,-2 10,-16z" id="svg_3"/>
   <path d="m9365,3764c-71,-37 -124,-120 -205,-324c-73,-187 -114,-236 -185,-227l-40,6l24,-20c13,-11 38,-19 59,-19c52,0 103,59 191,222c126,233 199,304 311,302c31,0 69,-8 88,-18c46,-24 51,-14 10,17c-89,68 -192,93 -253,61z" id="svg_4"/>
   <path d="m10120,3743c-211,-24 -312,-102 -348,-268c-21,-92 -20,-110 6,-113c32,-5 118,15 183,41c48,20 223,136 216,143c-1,2 -34,-13 -72,-32c-115,-58 -193,-35 -134,39c11,15 46,41 77,58c52,28 54,29 22,24c-19,-3 -61,-18 -92,-33c-32,-16 -58,-25 -58,-21c0,4 23,28 51,53c50,45 85,60 227,96c23,6 42,13 42,15c0,5 -65,4 -120,-2z" id="svg_5"/>
   <path d="m10366,2895c4,-8 11,-15 16,-15c6,0 5,6 -2,15c-7,8 -14,15 -16,15c-2,0 -1,-7 2,-15z" id="svg_6"/>
   <path d="m8487,1550c7,-175 -8,-304 -47,-420c-15,-47 -27,-87 -25,-88c2,-2 48,10 102,27c120,37 247,97 330,157c59,42 62,43 53,19c-6,-15 -22,-47 -36,-71c-14,-24 -23,-44 -19,-44c4,0 43,19 87,42c85,44 155,94 225,161l41,39l-19,-58c-10,-31 -17,-59 -15,-62c10,-9 155,69 199,109c27,23 66,69 89,102c52,77 109,177 100,177c-4,-1 -25,-26 -47,-57c-53,-74 -160,-189 -209,-225c-45,-32 -72,-37 -61,-10c12,31 27,124 20,130c-3,3 -31,-19 -63,-49c-93,-90 -204,-170 -218,-157c-2,3 9,35 26,73c16,39 27,71 26,73c-2,1 -35,-21 -74,-50c-134,-101 -331,-206 -418,-224l-30,-6l9,104c6,68 6,152 -2,248c-16,204 -31,242 -24,60z" id="svg_7"/>
  </g>
  <g id="svg_8">
   <g id="svg_9" transform="translate(0, 713) scale(0.1, -0.1)" fill="#000">
    <path id="svg_10" d="m2984,7096.38623c-406,-53 -420,-64 -563,-410l-77,-188l-38,-3c-32,-3 -39,-8 -53,-40c-9,-20 -16,-48 -16,-62c0,-14 -3,-27 -7,-30c-3,-3 -34,-48 -68,-100c-68,-103 -146,-189 -157,-171c-4,6 -2,28 3,48l10,38l-24,-28c-14,-15 -25,-35 -25,-43c0,-8 -6,-14 -14,-14c-9,0 -17,16 -22,43c-5,34 -8,38 -15,22c-4,-11 -8,-39 -8,-62c-1,-28 -6,-43 -13,-43c-42,1 -110,26 -157,56c-68,45 -124,65 -162,57c-21,-4 -36,0 -51,13c-12,11 -18,13 -14,6c5,-8 -8,-27 -38,-53c-26,-23 -58,-61 -72,-85c-23,-39 -28,-43 -47,-33c-12,7 -30,18 -39,26c-16,14 -16,18 -1,47c27,52 62,92 104,121c23,14 38,29 35,32c-14,15 -98,-32 -147,-82c-30,-30 -56,-55 -59,-55c-3,0 -14,7 -24,15c-19,14 -19,17 -3,69c19,60 101,161 120,149c7,-3 3,3 -7,15c-28,33 -135,31 -239,-4c-93,-31 -97,-44 -5,-16c81,25 159,36 198,27l31,-7l-45,-29c-47,-32 -98,-99 -116,-154c-8,-25 -18,-34 -42,-39c-47,-9 -48,-8 -48,28c0,47 18,95 52,139c34,43 23,49 -21,11c-37,-31 -75,-93 -91,-151c-12,-38 -29,-52 -64,-53c-10,0 -2,125 9,153c4,9 3,17 -3,17c-16,0 -52,-96 -52,-138c0,-36 -3,-41 -31,-51c-58,-20 -62,-17 -56,42c3,28 8,62 12,75c4,12 3,22 -2,22c-15,0 -44,-70 -50,-122c-5,-41 -11,-51 -34,-63c-15,-8 -30,-15 -34,-15c-3,0 -5,34 -5,76c0,41 -4,73 -9,70c-12,-8 -34,-122 -28,-146c4,-14 -4,-27 -26,-45c-28,-21 -33,-22 -41,-8c-5,9 -6,40 -3,69c3,30 2,54 -3,54c-14,0 -30,-70 -30,-131c0,-45 -4,-60 -23,-77c-13,-12 -27,-22 -31,-22c-5,0 -5,27 -2,61c5,37 4,59 -2,55c-14,-8 -32,-88 -32,-139c0,-27 -6,-49 -15,-57c-13,-11 -15,-8 -15,21c0,55 17,140 39,200c25,66 73,119 139,154c26,14 36,23 22,19c-97,-25 -183,-116 -204,-215l-6,-26l-128,-5c-119,-5 -133,-8 -214,-43l-87,-37l62,-47c116,-88 169,-149 221,-257c62,-126 138,-205 250,-258c88,-42 132,-53 285,-71c99,-12 118,-17 150,-43c20,-16 81,-63 137,-105c116,-89 138,-111 151,-152c8,-24 16,-31 41,-33c26,-3 32,-8 32,-27c0,-13 10,-31 21,-39c20,-13 23,-29 31,-158c5,-79 12,-194 16,-256c5,-81 4,-125 -5,-155c-7,-23 -13,-58 -13,-78c0,-33 -11,-46 -173,-195c-95,-87 -246,-240 -334,-339c-89,-99 -176,-196 -193,-215c-40,-45 -57,-84 -61,-140c-3,-44 -2,-45 25,-43c39,3 262,116 514,262c117,68 216,120 219,117c4,-3 0,-25 -7,-48c-18,-59 -117,-156 -198,-195c-79,-38 -68,-53 37,-53c105,0 256,39 372,95c89,44 94,45 97,25c3,-18 8,-20 35,-15c70,14 194,60 248,91c67,40 69,40 69,14c0,-33 44,-25 212,44c124,50 170,74 222,116c36,30 66,61 67,69c6,134 11,197 18,204c5,5 139,-68 297,-161c159,-93 377,-217 485,-275c232,-125 528,-262 541,-249c15,15 -4,93 -31,125c-107,132 -255,287 -407,428c-184,171 -252,228 -481,407c-153,119 -143,94 -115,285l17,118l214,193l214,194l58,-5l59,-6l0,36c0,27 5,37 21,42c11,4 23,4 27,1c11,-12 60,45 55,64c-5,20 25,69 42,70c6,0 22,13 35,30c14,16 29,29 33,30c5,0 14,6 21,13c8,6 38,32 67,57c30,25 74,64 99,86c44,41 48,42 177,63c141,22 311,71 354,102c44,31 172,168 201,214c15,23 30,59 34,80c14,77 120,203 221,263c35,20 61,42 60,47c-6,19 -68,54 -120,66c-29,7 -128,15 -221,18l-170,6l-18,104c-36,205 -149,473 -236,564c-26,27 -85,72 -132,100l-85,52l-310,1c-301,2 -318,1 -570,-33zm855,-22c123,-46 245,-185 309,-351c18,-45 31,-84 29,-86c-2,-2 -29,14 -60,35c-31,21 -72,47 -91,58c-29,17 -35,28 -40,67c-8,56 -49,143 -89,188c-19,22 -27,26 -22,13c40,-108 54,-155 54,-186l0,-35l-71,23c-40,13 -77,23 -85,23c-7,0 -15,14 -19,30c-10,44 -80,144 -126,181c-47,37 -60,33 -25,-8c31,-37 74,-121 82,-160l6,-28l-94,3l-93,3l-34,65c-21,41 -54,83 -89,114c-68,61 -99,67 -47,9c38,-42 95,-151 95,-180c0,-13 -16,-20 -67,-28c-38,-7 -75,-14 -84,-17c-11,-3 -27,14 -52,54c-20,33 -54,75 -76,95c-36,32 -129,87 -148,87c-4,0 19,-23 50,-51c57,-50 92,-100 121,-171l16,-37l-58,-16c-31,-9 -64,-18 -73,-21c-12,-3 -25,9 -42,38c-50,85 -150,167 -230,189c-54,14 -56,6 -4,-25c59,-34 135,-119 162,-181l22,-49l-39,-18l-39,-17l-57,38c-76,51 -132,71 -214,78c-74,6 -97,-10 -30,-21c61,-9 153,-61 206,-115l50,-51l-29,-59l-28,-60l-50,39c-68,55 -145,89 -216,96l-60,7l20,51c32,80 95,188 138,238c74,83 198,118 546,152c220,22 266,24 455,21c138,-3 174,-7 220,-24zm-1283,-496c52,-23 145,-102 164,-137c16,-30 -66,-61 -143,-56c-69,5 -105,27 -132,82c-17,34 -17,44 -6,93c11,52 13,54 38,48c15,-3 50,-17 79,-30zm1284,-40c52,-19 114,-76 136,-125c8,-19 23,-82 33,-139l18,-104l-58,-70c-33,-38 -78,-109 -101,-156c-23,-47 -65,-116 -93,-153c-47,-62 -57,-70 -155,-116c-58,-28 -142,-59 -186,-71c-66,-17 -252,-40 -331,-41c-18,-1 -17,-2 4,-20c13,-11 42,-25 63,-31c35,-11 39,-15 39,-46c0,-32 -1,-33 -41,-33c-39,0 -69,-17 -69,-40c0,-25 -147,40 -188,83c-55,59 -102,128 -102,152c0,30 15,35 133,42c54,3 93,9 86,13c-23,15 3,30 54,31c29,1 44,3 35,6c-10,2 -18,11 -18,19c0,10 14,14 53,14c47,1 50,2 29,13c-17,10 -20,15 -10,25c7,7 24,12 39,12c30,0 51,20 22,20c-16,1 -15,3 6,20c13,11 33,20 45,20c17,0 18,2 6,10c-8,5 -12,11 -10,12c3,2 18,12 33,21c15,10 25,22 22,27c-3,5 12,18 35,30c45,23 52,35 15,26c-14,-4 -25,-3 -25,0c0,4 22,36 49,73c42,57 82,141 105,217c7,22 6,22 -66,9c-40,-8 -132,-18 -203,-24c-155,-12 -299,-50 -330,-86c-11,-12 -32,-26 -47,-29c-28,-6 -28,-6 -28,45c0,41 8,66 40,123c22,40 48,80 58,89c13,12 84,28 223,52c112,19 274,48 359,64c178,34 259,37 321,16zm-1436,-271c33,-33 89,-77 125,-97c36,-20 61,-37 55,-37c-5,0 -28,11 -50,25c-45,27 -71,33 -40,9c45,-36 161,-84 217,-90c32,-4 58,-8 58,-11c0,-2 -8,-16 -17,-31c-11,-17 6,-5 43,29c106,100 188,129 364,129c63,0 144,7 180,14c36,8 66,13 67,12c6,-6 -69,-120 -122,-185c-140,-174 -355,-295 -579,-327l-49,-7l6,49c6,43 5,47 -8,31c-7,-11 -17,-37 -20,-58c-7,-43 5,-69 33,-69c13,0 12,3 -4,15c-14,11 -15,14 -4,15c28,0 115,-76 146,-128c69,-114 50,-235 -46,-300c-68,-46 -193,-18 -289,64c-23,20 -44,34 -47,31c-7,-7 101,-102 163,-144l53,-36l-40,-28c-44,-32 -84,-89 -106,-152c-20,-55 -10,-58 14,-4c30,69 119,157 158,157c3,0 -19,-27 -49,-60c-64,-68 -100,-137 -124,-234c-14,-58 -18,-65 -25,-46c-15,41 -41,91 -44,87c-3,-2 3,-24 12,-48c9,-24 17,-73 17,-109c4,-151 -102,-257 -280,-279c-89,-11 -178,2 -257,38c-61,27 -65,31 -86,87c-47,122 -24,279 55,372c20,22 42,57 50,76c9,20 19,35 23,34c4,-1 19,5 35,12c23,11 31,11 52,0c14,-7 25,-19 25,-27c0,-23 20,-14 70,33c61,57 147,223 155,299l6,50l-29,-60c-36,-75 -83,-130 -134,-156c-81,-41 -314,-35 -369,10c-20,16 -21,21 -10,53c6,19 29,59 51,88c52,70 50,77 -5,17c-81,-88 -104,-203 -58,-289c16,-30 18,-31 21,-10c4,27 10,28 28,5c21,-28 16,-85 -10,-144c-49,-106 -58,-266 -21,-371c8,-23 12,-45 9,-48c-3,-3 -36,-4 -72,-4c-175,4 -295,113 -296,269c-1,124 70,237 186,295c34,16 54,30 45,30c-10,0 -17,1 -17,3c0,14 70,177 102,239c45,88 95,138 136,138l27,0l-25,-20c-14,-11 -29,-20 -34,-20c-5,0 -7,-3 -3,-6c3,-4 34,8 68,25c33,18 63,30 66,27c3,-3 -8,-38 -24,-78c-17,-40 -34,-89 -38,-108c-3,-19 -9,-43 -11,-52c-3,-10 -1,-18 5,-18c6,0 11,6 11,14c0,27 49,158 71,191c29,41 68,65 108,65c34,0 127,-29 281,-88c58,-22 128,-43 155,-46l50,-6l-65,24c-61,23 -63,24 -29,25c48,1 97,18 136,47c40,31 43,30 43,-6c0,-16 5,-30 10,-30c11,0 14,122 4,133c-3,3 -20,-10 -36,-29c-46,-53 -101,-77 -183,-80c-38,-1 -56,0 -40,2c62,10 133,34 146,50c12,15 12,16 -6,11c-60,-19 -203,-33 -288,-28c-69,4 115,67 218,75c51,3 73,10 82,23c24,32 35,97 30,168c-3,39 -3,83 0,98c6,29 58,87 79,87c7,0 16,5 19,11c5,7 -4,8 -27,4c-24,-5 -53,1 -101,19c-64,24 -68,24 -111,10c-63,-22 -171,-124 -276,-264c-49,-64 -102,-129 -120,-143c-43,-37 -97,-36 -175,3c-54,27 -57,29 -24,24c20,-3 39,-1 43,4c3,5 -11,12 -32,15c-20,4 -71,27 -112,52c-89,56 -123,64 -150,40c-19,-17 -22,-16 -75,24c-31,23 -69,61 -86,84c-27,36 -30,49 -27,92c5,64 42,137 90,181c59,53 74,53 181,-5c51,-28 118,-57 148,-65c36,-9 53,-18 50,-28c-33,-108 -35,-192 -8,-283c11,-38 12,-33 17,80c9,166 19,185 129,238c103,48 193,136 261,251c38,66 46,74 55,59c6,-10 37,-45 70,-79zm2195,-33c0,-4 -26,-12 -57,-20c-32,-7 -80,-23 -108,-36c-82,-39 -91,-39 -89,-8c1,24 7,29 45,39c85,23 209,37 209,25zm-92,-105c-8,-6 -34,-27 -59,-47c-38,-30 -89,-59 -105,-59c-2,0 -3,16 -2,36c3,39 6,41 133,81c35,11 54,5 33,-11zm-418,-61c10,-22 24,-68 30,-101c17,-86 0,-119 -94,-182c-188,-126 -467,-226 -666,-239c-52,-3 -92,-3 -88,1c3,4 39,14 80,22c111,23 304,90 388,135c97,53 221,142 270,195c46,50 56,90 43,180c-9,60 -8,65 5,48c8,-10 22,-37 32,-59zm-80,-89c-11,-33 -78,-121 -87,-112c-5,5 28,73 66,134c28,46 40,35 21,-22zm-2696,-63c25,-21 52,-55 61,-75c8,-20 24,-42 35,-48c11,-6 20,-18 20,-27c0,-14 -11,-15 -82,-9c-46,3 -120,12 -166,18c-45,6 -85,8 -89,4c-11,-11 116,-133 182,-175c75,-48 157,-66 263,-58c42,3 87,9 100,13c19,5 22,3 22,-22l0,-29l21,33c12,17 23,32 26,32c16,0 45,-25 58,-49c13,-27 13,-31 -8,-57c-12,-15 -15,-24 -8,-19c8,4 -3,-17 -25,-48c-22,-32 -40,-50 -42,-42c-2,8 2,24 8,36c8,15 9,19 1,15c-20,-13 -40,-62 -46,-117c-4,-30 -11,-78 -17,-108c-10,-54 -10,-54 -27,-33c-10,14 -33,25 -61,30c-39,6 -45,11 -48,34c-4,33 -20,40 -65,27c-28,-8 -44,-5 -93,17c-32,14 -61,28 -63,30c-3,3 20,30 50,60l54,56l-45,-22c-25,-12 -52,-28 -60,-35c-53,-45 -385,-65 -503,-31c-66,19 -77,37 -76,114l1,47l11,-32c18,-50 49,-73 123,-95c82,-23 266,-34 344,-20c47,8 50,10 19,11c-20,0 -59,11 -87,22c-42,17 -62,35 -105,93c-29,39 -73,109 -97,156c-27,51 -67,109 -102,146c-32,33 -58,66 -58,72c0,13 -9,11 250,73c247,60 264,60 324,12zm-926,-69c36,-5 42,-10 42,-31c0,-13 -3,-22 -7,-20c-46,24 -107,47 -125,48c-13,0 -32,5 -43,10c-20,9 34,6 133,-7zm1970,-78c5,-26 -16,-45 -28,-26c-5,8 -10,23 -10,33c0,24 34,18 38,-7zm-1983,1c46,-12 50,-16 53,-47l3,-33l-29,19c-47,31 -98,74 -87,74c6,0 33,-6 60,-13zm370,-51c29,-30 68,-85 89,-123c20,-37 54,-93 76,-123c41,-57 49,-102 19,-108c-13,-2 -187,103 -226,138c-23,20 -14,29 23,23c49,-8 42,11 -17,52c-43,31 -44,33 -47,90c-4,69 3,105 20,105c7,0 35,-24 63,-54zm1802,32c-3,-8 -6,-5 -6,6c-1,11 2,17 5,13c3,-3 4,-12 1,-19zm-125,-73c3,-14 1,-25 -3,-25c-5,0 -9,11 -9,25c0,14 2,25 4,25c2,0 6,-11 8,-25zm-703,-9c21,-11 21,-14 6,-20c-11,-4 -15,-13 -12,-26c7,-28 -5,-25 -37,9c-42,44 -14,68 43,37zm838,-18c-3,-7 -5,-2 -5,12c0,14 2,19 5,13c2,-7 2,-19 0,-25zm-74,-65c-13,-2 -35,-2 -50,0c-16,2 -5,4 22,4c28,0 40,-2 28,-4zm1077,-125c-52,-49 -106,-88 -122,-88c-22,0 -52,45 -44,65c3,9 19,15 38,16c18,0 51,6 73,14c22,7 49,13 59,14c18,1 18,-1 -4,-21zm-237,-70c51,-111 58,-131 49,-140c-22,-22 -49,11 -82,96c-9,24 -5,96 6,96c2,0 14,-24 27,-52zm-270,-18c76,-15 74,-32 -7,-61l-38,-14l-34,39c-19,22 -34,48 -34,58c0,17 2,17 28,4c15,-7 53,-19 85,-26zm127,-41c0,-6 14,-40 31,-76c31,-64 32,-87 5,-64c-39,32 -75,151 -46,151c6,0 10,-5 10,-11zm-239,-16c16,-10 29,-20 29,-24c0,-8 -50,-42 -55,-37c-7,7 -17,78 -10,78c4,0 20,-8 36,-17zm-1676,-87c68,-31 82,-49 65,-81c-20,-38 -49,-31 -125,32c-66,54 -68,58 -45,64c41,11 53,10 105,-15zm1833,-59c38,-35 55,-76 49,-119c-6,-43 -52,-139 -73,-151c-8,-4 -14,-13 -14,-18c0,-10 -145,-159 -181,-187c-34,-26 -4,163 31,198c33,33 80,133 80,173c0,9 -11,34 -25,55c-13,20 -26,48 -27,61c-2,19 2,24 26,27c15,1 31,5 33,8c9,8 75,-23 101,-47zm-1665,-24c10,-52 -47,-163 -71,-138c-7,7 51,174 59,169c4,-2 9,-16 12,-31zm1486,-7c-2,-2 -14,0 -26,5c-15,6 -21,13 -16,24c5,15 8,14 26,-4c12,-11 19,-22 16,-25zm-142,-291c-6,-298 -31,-446 -119,-710c-17,-49 -32,-92 -34,-94c-2,-2 -10,1 -17,8c-20,16 -43,4 -67,-35c-26,-42 -38,-80 -50,-169c-12,-81 -28,-101 -115,-150c-61,-35 -285,-128 -291,-122c-2,2 0,18 5,35c5,18 7,32 4,32c-3,0 -22,-13 -42,-29c-56,-44 -159,-97 -235,-120c-86,-27 -90,-26 -70,4c9,14 15,28 12,30c-3,3 -56,-19 -119,-49c-133,-63 -212,-86 -299,-86l-62,0l35,40c44,48 80,117 98,190c15,58 18,411 6,540c-5,50 -4,59 4,40c16,-38 38,-59 104,-95c152,-85 332,-127 535,-128c147,0 221,11 345,50c65,20 88,33 122,69c80,83 162,288 198,493c21,120 38,391 30,473c-7,79 5,114 18,53c5,-22 6,-143 4,-270zm-787,251c0,-2 -8,-10 -17,-17c-16,-13 -17,-12 -4,4c13,16 21,21 21,13zm718,-103l-3,-38l-13,53c-10,43 -10,58 0,75c12,21 13,20 16,-15c2,-21 2,-55 0,-75zm-53,50c-10,-42 -25,-52 -25,-17c0,32 6,44 23,44c5,0 6,-12 2,-27zm185,-62c0,-60 -4,-84 -17,-100c-17,-21 -18,-19 -18,78c0,90 2,101 18,101c15,0 17,-10 17,-79zm-151,-58c13,-85 14,-275 1,-228c-18,64 -41,262 -35,288c11,41 22,22 34,-60zm-80,-43c-15,-86 -20,-90 -35,-26c-13,54 -13,61 7,105l22,46l8,-35c4,-19 3,-60 -2,-90zm54,-260c1,-109 -3,-168 -13,-200l-14,-45l-7,110c-4,61 -12,137 -18,170c-9,49 -8,75 6,145l17,85l14,-55c9,-35 15,-112 15,-210zm-108,178c9,-53 7,-152 -4,-198l-8,-35l-7,30c-4,17 -14,49 -21,71c-11,35 -11,51 3,108c9,36 19,66 23,66c4,0 11,-19 14,-42zm277,-81c-3,-54 -8,-70 -24,-78c-18,-10 -19,-8 -12,53c3,35 13,71 22,81c8,9 16,16 17,15c1,-2 0,-34 -3,-71zm-224,-217c10,-106 3,-202 -17,-237c-8,-14 -10,-5 -11,42c0,33 -5,87 -10,120c-11,62 5,204 21,188c4,-4 12,-55 17,-113zm-92,65c8,-47 0,-142 -16,-180l-12,-30l-17,70c-17,67 -17,72 1,107c10,21 18,44 18,53c0,29 19,15 26,-20zm311,18c-3,-10 -11,-62 -18,-115c-7,-54 -15,-98 -18,-98c-3,0 -14,7 -23,14c-16,12 -17,19 -2,102c9,56 21,94 31,102c23,17 35,15 30,-5zm-1357,-124c0,-89 -5,-104 -34,-93c-13,5 -16,25 -16,117l0,110l25,-23c23,-22 25,-31 25,-111zm121,-51c5,-62 -2,-98 -22,-98c-5,0 -25,7 -44,14l-35,15l0,68c0,37 3,78 6,90l6,23l42,-25c40,-24 41,-26 47,-87zm134,28l51,-7l-4,-67c-2,-37 -5,-73 -7,-79c-5,-16 -42,-16 -101,-2l-44,11l0,68c0,87 5,101 33,91c12,-5 45,-12 72,-15zm700,-36c33,-99 6,-143 -92,-156l-53,-7l0,82c0,58 4,81 13,81c6,0 32,11 57,25c25,13 48,24 52,24c3,1 14,-21 23,-49zm-514,4c74,-18 79,-26 79,-116c0,-48 -19,-57 -93,-47c-29,4 -60,8 -69,8c-12,1 -18,9 -18,23c0,36 22,148 29,148c3,0 36,-7 72,-16zm648,-109c1,-73 -20,-137 -52,-164c-16,-12 -17,-8 -17,50c-1,81 51,258 61,212c4,-16 7,-59 8,-98zm-331,22c4,-81 -3,-87 -104,-87l-84,0l0,59c0,33 -3,67 -6,76c-6,14 5,15 92,13l99,-3l3,-58zm-775,25c16,-17 37,-100 37,-143c0,-31 -30,-22 -45,14c-17,42 -30,147 -18,147c6,0 17,-8 26,-18zm1315,-25c6,-7 9,-23 5,-35c-4,-18 -9,-20 -24,-11c-19,10 -26,39 -12,52c10,10 19,8 31,-6zm-1217,-26c40,-18 44,-24 56,-73c24,-103 18,-112 -56,-82c-37,15 -40,19 -46,62c-3,26 -8,62 -11,80c-6,37 -1,39 57,13zm1297,-38c46,-34 276,-218 316,-252c197,-170 482,-459 474,-481c-7,-21 -460,215 -743,388c-170,103 -163,98 -158,126c3,15 9,28 13,31c4,3 36,-14 71,-37c107,-69 408,-248 491,-291c43,-22 81,-37 85,-33c12,12 -144,154 -377,344c-112,92 -211,172 -218,178c-9,7 -12,18 -8,32c9,28 10,28 54,-5zm-1143,-11l70,-18l12,-65c7,-35 10,-70 8,-76c-5,-16 -37,-16 -87,-3c-51,14 -64,31 -73,87c-3,26 -9,58 -12,71c-6,26 -7,26 82,4zm225,-40c61,-7 65,-9 68,-34c5,-41 -16,-106 -38,-118c-28,-15 -118,-2 -129,19c-5,9 -12,46 -16,83l-7,68l28,-6c16,-3 58,-8 94,-12zm535,-1c5,-17 2,-43 -12,-94c-7,-26 -50,-44 -133,-56c-41,-5 -75,-9 -76,-8c-1,1 5,36 14,78l16,76l75,10c42,6 84,11 93,11c9,1 19,-7 23,-17zm-225,-32c0,-43 -23,-110 -43,-124c-20,-14 -176,-22 -188,-10c-3,2 1,38 9,80l15,75l103,0c98,0 104,-1 104,-21zm490,-93c0,-6 -3,-21 -6,-33c-5,-18 -10,-20 -23,-13c-41,24 -42,25 -30,58c10,30 11,31 35,16c13,-9 24,-21 24,-28zm-1340,-56c0,-26 -20,-50 -132,-159c-75,-73 -126,-131 -120,-135c6,-3 17,0 25,8c8,8 17,12 21,9c3,-4 20,3 36,15c16,12 34,22 40,22c5,0 10,3 10,8c0,4 19,16 43,27c23,11 48,26 55,32c23,22 32,14 32,-25c0,-35 -4,-41 -42,-63c-24,-13 -52,-29 -63,-36c-11,-6 -51,-28 -90,-48c-38,-20 -88,-47 -110,-60c-56,-32 -175,-91 -202,-99c-13,-4 -23,-3 -23,2c0,4 10,18 23,29c12,11 29,30 37,41c70,92 430,462 450,462c5,0 10,-14 10,-30z" fill="#000"/>
    <path id="svg_11" d="m2434,6209.38623c17,-14 35,-25 40,-25c11,0 -20,25 -50,41c-11,5 -6,-2 10,-16z" fill="#000"/>
    <path id="svg_12" d="m2334,6157.38623c-71,-37 -124,-120 -205,-324c-73,-187 -114,-236 -185,-227l-40,6l24,-20c13,-11 38,-19 59,-19c52,0 103,59 191,222c126,233 199,304 311,302c31,0 69,-8 88,-18c46,-24 51,-14 10,17c-89,68 -192,93 -253,61z" fill="#000"/>
    <path id="svg_13" d="m3089,6136.38623c-211,-24 -312,-102 -348,-268c-21,-92 -20,-110 6,-113c32,-5 118,15 183,41c48,20 223,136 216,143c-1,2 -34,-13 -72,-32c-115,-58 -193,-35 -134,39c11,15 46,41 77,58c52,28 54,29 22,24c-19,-3 -61,-18 -92,-33c-32,-16 -58,-25 -58,-21c0,4 23,28 51,53c50,45 85,60 227,96c23,6 42,13 42,15c0,5 -65,4 -120,-2z" fill="#000"/>
    <path id="svg_14" d="m3335,5288.38623c4,-8 11,-15 16,-15c6,0 5,6 -2,15c-7,8 -14,15 -16,15c-2,0 -1,-7 2,-15z" fill="#000"/>
    <path id="svg_15" d="m1456,3943.38623c7,-175 -8,-304 -47,-420c-15,-47 -27,-87 -25,-88c2,-2 48,10 102,27c120,37 247,97 330,157c59,42 62,43 53,19c-6,-15 -22,-47 -36,-71c-14,-24 -23,-44 -19,-44c4,0 43,19 87,42c85,44 155,94 225,161l41,39l-19,-58c-10,-31 -17,-59 -15,-62c10,-9 155,69 199,109c27,23 66,69 89,102c52,77 109,177 100,177c-4,-1 -25,-26 -47,-57c-53,-74 -160,-189 -209,-225c-45,-32 -72,-37 -61,-10c12,31 27,124 20,130c-3,3 -31,-19 -63,-49c-93,-90 -204,-170 -218,-157c-2,3 9,35 26,73c16,39 27,71 26,73c-2,1 -35,-21 -74,-50c-134,-101 -331,-206 -418,-224l-30,-6l9,104c6,68 6,152 -2,248c-16,204 -31,242 -24,60z" fill="#000"/>
   </g>
  </g>
 </g>
</svg>