
<svg height="100%" stroke-miterlimit="10" style="fill-rule:nonzero;clip-rule:evenodd;stroke-linecap:round;stroke-linejoin:round;" version="1.1" viewBox="0 0 24 24" width="100%" xml:space="preserve" xmlns="http://www.w3.org/2000/svg" xmlns:xlink="http://www.w3.org/1999/xlink">
<defs/>
<g id="Tick">
<path d="M22 12C22 16.714 22 19.071 20.535 20.535C19.072 22 16.714 22 12 22C7.286 22 4.929 22 3.464 20.535C2 19.072 2 16.714 2 12C2 7.286 2 4.929 3.464 3.464C4.93 2 7.286 2 12 2C16.714 2 19.071 2 20.535 3.464C21.509 4.438 21.835 5.807 21.945 8" fill="none" opacity="1" stroke="#000000" stroke-linecap="round" stroke-linejoin="miter" stroke-width="1.5"/>
<path d="M11.5325 18.9975C10.7899 18.9996 10.0773 18.7043 9.55389 18.1775L5.82237 14.446C5.29342 13.918 5.00236 13.2146 5.00236 12.4673C5.00236 11.7201 5.29342 11.0167 5.82237 10.4878C6.87932 9.43082 8.72269 9.43082 9.77965 10.4878L10.8879 11.596L13.7509 6.44373C14.3 5.45341 15.3918 4.89169 16.5167 5.02079C17.6417 5.14989 18.5779 5.94436 18.8883 7.03331C19.0948 7.74715 19.0064 8.514 18.643 9.16215L13.9785 17.5581C13.4828 18.4442 12.5479 18.9944 11.5325 18.9975ZM7.80101 11.5345C7.55099 11.5345 7.31777 11.6315 7.14146 11.8078C6.96514 11.9841 6.86813 12.2173 6.86813 12.4673C6.86813 12.7174 6.96514 12.9506 7.14146 13.1269L10.873 16.8584C11.0803 17.0646 11.3721 17.1619 11.6616 17.1215C11.9511 17.081 12.2051 16.9074 12.3479 16.6523L17.0123 8.25632C17.1332 8.04044 17.1628 7.78514 17.0944 7.54733C17.0268 7.30851 16.8661 7.10683 16.6485 6.9876C16.1979 6.74712 15.6378 6.90726 15.3825 7.34956L11.318 14.6643L8.46149 11.8078C8.28658 11.6323 8.04881 11.5339 7.80101 11.5345Z" fill="#000000" fill-rule="nonzero" opacity="1" stroke="none"/>
</g>
</svg>
